<svg width="615" height="273" viewBox="0 0 615 273" fill="none" xmlns="http://www.w3.org/2000/svg">
<g clip-path="url(#clip0_8_63)">
<path d="M567.376 112.621H198.339C196.772 112.621 195.269 113.243 194.161 114.352C193.053 115.46 192.431 116.964 192.431 118.532C192.431 120.1 193.053 121.603 194.161 122.712C195.269 123.82 196.772 124.443 198.339 124.443H208.792V265.857C208.792 267.425 209.414 268.928 210.522 270.037C211.63 271.145 213.133 271.768 214.7 271.768C216.267 271.768 217.77 271.145 218.878 270.037C219.986 268.928 220.608 267.425 220.608 265.857L220.698 124.443H516.888L544.198 265.857C544.198 267.425 544.82 268.928 545.928 270.037C547.036 271.145 548.539 271.768 550.106 271.768C551.673 271.768 553.176 271.145 554.284 270.037C555.392 268.928 556.014 267.425 556.014 265.857L557.733 124.443H567.376C568.943 124.443 570.446 123.82 571.554 122.712C572.662 121.603 573.285 120.1 573.285 118.532C573.285 116.964 572.662 115.46 571.554 114.352C570.446 113.243 568.943 112.621 567.376 112.621Z" fill="#CCCCCC"/>
<path d="M262.307 86.2811V111.313H199.623C197.98 111.371 196.342 111.103 194.802 110.527C193.263 109.951 191.852 109.077 190.65 107.955C189.447 106.834 188.478 105.486 187.797 103.989C187.115 102.493 186.735 100.876 186.678 99.2327C186.621 97.589 186.888 95.9502 187.463 94.4098C188.039 92.8694 188.913 91.4576 190.034 90.2549C191.155 89.0522 192.502 88.0823 193.998 87.4005C195.494 86.7186 197.11 86.3383 198.752 86.2811C199.042 86.271 199.333 86.271 199.623 86.2811L262.307 86.2811Z" fill="#F2F2F2"/>
<path d="M263.846 111.121C263.846 111.376 263.745 111.621 263.564 111.802C263.384 111.982 263.139 112.084 262.884 112.084H198.506C195.011 112.081 191.661 110.69 189.19 108.217C186.72 105.744 185.332 102.39 185.332 98.8935C185.332 95.3969 186.72 92.0433 189.19 89.57C191.661 87.0966 195.011 85.7059 198.506 85.7034H262.884C263.011 85.7031 263.136 85.7278 263.253 85.776C263.37 85.8242 263.477 85.8951 263.566 85.9845C263.656 86.074 263.727 86.1802 263.775 86.2972C263.824 86.4142 263.849 86.5395 263.849 86.6662C263.849 86.7928 263.824 86.9183 263.775 87.0352C263.727 87.1522 263.656 87.2584 263.566 87.3479C263.477 87.4373 263.37 87.5082 263.253 87.5564C263.136 87.6047 263.011 87.6293 262.884 87.629H198.506C195.523 87.6335 192.664 88.8223 190.556 90.9343C188.448 93.0463 187.264 95.9089 187.264 98.8935C187.264 101.878 188.448 104.741 190.556 106.853C192.664 108.965 195.523 110.154 198.506 110.158H262.884C263.139 110.158 263.384 110.26 263.564 110.44C263.745 110.621 263.846 110.866 263.846 111.121Z" fill="#62896D"/>
<path d="M262.307 92.0578H194.946C194.895 92.0581 194.846 92.0381 194.81 92.0024C194.773 91.9666 194.753 91.9179 194.752 91.867C194.752 91.8161 194.772 91.767 194.807 91.7306C194.843 91.6942 194.891 91.6734 194.942 91.6727H262.307C262.357 91.6732 262.406 91.6937 262.442 91.7298C262.477 91.7658 262.497 91.8145 262.497 91.8652C262.497 91.916 262.477 91.9647 262.442 92.0007C262.406 92.0368 262.357 92.0573 262.307 92.0578Z" fill="#CCCCCC"/>
<path d="M262.307 96.6792H194.946C194.895 96.6794 194.846 96.6595 194.81 96.6238C194.773 96.588 194.753 96.5393 194.752 96.4884C194.752 96.4374 194.772 96.3884 194.807 96.352C194.843 96.3156 194.891 96.2947 194.942 96.2941H262.307C262.357 96.2946 262.406 96.3151 262.442 96.3511C262.477 96.3872 262.497 96.4359 262.497 96.4866C262.497 96.5374 262.477 96.586 262.442 96.6221C262.406 96.6582 262.357 96.6787 262.307 96.6792Z" fill="#CCCCCC"/>
<path d="M262.307 101.301H194.946C194.895 101.301 194.846 101.281 194.81 101.245C194.773 101.209 194.753 101.161 194.752 101.11C194.752 101.059 194.772 101.01 194.807 100.973C194.843 100.937 194.891 100.916 194.942 100.915H262.307C262.357 100.916 262.406 100.936 262.442 100.972C262.477 101.009 262.497 101.057 262.497 101.108C262.497 101.159 262.477 101.207 262.442 101.243C262.406 101.279 262.357 101.3 262.307 101.301Z" fill="#CCCCCC"/>
<path d="M262.307 105.922H194.946C194.895 105.922 194.846 105.902 194.81 105.866C194.773 105.831 194.753 105.782 194.752 105.731C194.752 105.68 194.772 105.631 194.807 105.595C194.843 105.558 194.891 105.537 194.942 105.537H262.307C262.357 105.537 262.406 105.558 262.442 105.594C262.477 105.63 262.497 105.679 262.497 105.729C262.497 105.78 262.477 105.829 262.442 105.865C262.406 105.901 262.357 105.921 262.307 105.922Z" fill="#CCCCCC"/>
<path d="M250.49 59.9081V84.9404H187.806C184.488 85.0559 181.261 83.848 178.833 81.5824C176.405 79.3168 174.977 76.1792 174.861 72.8597C174.746 69.5402 175.953 66.3108 178.218 63.8819C180.482 61.453 183.618 60.0236 186.936 59.9081C187.226 59.898 187.516 59.898 187.806 59.9081H250.49Z" fill="#F2F2F2"/>
<path d="M252.03 84.7478C252.03 85.0031 251.928 85.2479 251.748 85.4285C251.568 85.609 251.323 85.7105 251.068 85.7106H186.69C183.193 85.7106 179.84 84.3209 177.368 81.8473C174.895 79.3737 173.506 76.0187 173.506 72.5205C173.506 69.0223 174.895 65.6673 177.368 63.1937C179.84 60.7201 183.193 59.3304 186.69 59.3304H251.068C251.194 59.3304 251.319 59.3553 251.436 59.4037C251.553 59.4521 251.659 59.523 251.748 59.6124C251.837 59.7018 251.908 59.8079 251.957 59.9248C252.005 60.0416 252.03 60.1668 252.03 60.2932C252.03 60.4196 252.005 60.5448 251.957 60.6616C251.908 60.7784 251.837 60.8846 251.748 60.974C251.659 61.0634 251.553 61.1343 251.436 61.1827C251.319 61.2311 251.194 61.256 251.068 61.256H186.69C183.704 61.256 180.84 62.4428 178.729 64.5553C176.617 66.6678 175.431 69.533 175.431 72.5205C175.431 75.5081 176.617 78.3732 178.729 80.4858C180.84 82.5983 183.704 83.7851 186.69 83.7851H251.068C251.323 83.7852 251.568 83.8866 251.748 84.0672C251.928 84.2477 252.03 84.4925 252.03 84.7478Z" fill="#3F3D56"/>
<path d="M250.49 65.6848H183.129C183.078 65.685 183.029 65.6651 182.993 65.6293C182.957 65.5936 182.936 65.5449 182.936 65.494C182.935 65.443 182.955 65.394 182.991 65.3576C183.026 65.3211 183.075 65.3003 183.126 65.2997H250.49C250.541 65.3002 250.589 65.3207 250.625 65.3567C250.661 65.3928 250.681 65.4415 250.681 65.4922C250.681 65.5429 250.661 65.5916 250.625 65.6277C250.589 65.6637 250.541 65.6842 250.49 65.6848Z" fill="#CCCCCC"/>
<path d="M250.49 70.3061H183.129C183.078 70.3064 183.029 70.2865 182.993 70.2507C182.957 70.215 182.936 70.1663 182.936 70.1153C182.935 70.0644 182.955 70.0154 182.991 69.9789C183.026 69.9425 183.075 69.9217 183.126 69.921H250.49C250.541 69.9215 250.589 69.942 250.625 69.9781C250.661 70.0141 250.681 70.0628 250.681 70.1136C250.681 70.1643 250.661 70.213 250.625 70.2491C250.589 70.2851 250.541 70.3056 250.49 70.3061Z" fill="#CCCCCC"/>
<path d="M250.49 74.9274H183.129C183.078 74.9277 183.029 74.9078 182.993 74.872C182.957 74.8363 182.936 74.7876 182.936 74.7367C182.935 74.6857 182.955 74.6367 182.991 74.6003C183.026 74.5638 183.075 74.543 183.126 74.5424H250.49C250.541 74.5429 250.589 74.5634 250.625 74.5994C250.661 74.6355 250.681 74.6842 250.681 74.7349C250.681 74.7857 250.661 74.8343 250.625 74.8704C250.589 74.9064 250.541 74.9269 250.49 74.9274Z" fill="#CCCCCC"/>
<path d="M250.49 79.5488H183.129C183.078 79.549 183.029 79.5291 182.993 79.4934C182.957 79.4576 182.936 79.4089 182.936 79.358C182.935 79.3071 182.955 79.258 182.991 79.2216C183.026 79.1852 183.075 79.1643 183.126 79.1637H250.49C250.541 79.1642 250.589 79.1847 250.625 79.2207C250.661 79.2568 250.681 79.3055 250.681 79.3562C250.681 79.407 250.661 79.4556 250.625 79.4917C250.589 79.5278 250.541 79.5483 250.49 79.5488Z" fill="#CCCCCC"/>
<path d="M323.411 201.199V179.373C323.411 178.408 323.028 177.483 322.346 176.801C321.664 176.119 320.739 175.736 319.775 175.736H237.06C236.095 175.736 235.171 176.119 234.489 176.801C233.807 177.483 233.424 178.408 233.424 179.373V201.199H323.411Z" fill="#CCCCCC"/>
<path d="M323.411 209.384H233.424V237.576H323.411V209.384Z" fill="#CCCCCC"/>
<path d="M233.424 245.761V267.587C233.424 268.551 233.807 269.477 234.489 270.159C235.171 270.841 236.095 271.224 237.06 271.224H319.775C320.739 271.224 321.664 270.841 322.346 270.159C323.028 269.477 323.411 268.551 323.411 267.587V245.761H233.424Z" fill="#CCCCCC"/>
<path d="M277.963 192.105C279.469 192.105 280.69 190.884 280.69 189.377C280.69 187.87 279.469 186.649 277.963 186.649C276.457 186.649 275.236 187.87 275.236 189.377C275.236 190.884 276.457 192.105 277.963 192.105Z" fill="white"/>
<path d="M277.963 228.482C279.469 228.482 280.69 227.26 280.69 225.753C280.69 224.247 279.469 223.025 277.963 223.025C276.457 223.025 275.236 224.247 275.236 225.753C275.236 227.26 276.457 228.482 277.963 228.482Z" fill="white"/>
<path d="M278.109 264.088C279.615 264.088 280.836 262.867 280.836 261.36C280.836 259.853 279.615 258.632 278.109 258.632C276.603 258.632 275.382 259.853 275.382 261.36C275.382 262.867 276.603 264.088 278.109 264.088Z" fill="white"/>
<path d="M313.208 150.85V175.882H250.525C247.208 175.995 243.983 174.786 241.557 172.521C239.131 170.256 237.703 167.119 237.588 163.801C237.472 160.483 238.678 157.255 240.941 154.827C243.203 152.398 246.337 150.967 249.653 150.85C249.944 150.84 250.234 150.84 250.525 150.85H313.208Z" fill="#F2F2F2"/>
<path d="M314.748 175.689C314.748 175.945 314.647 176.189 314.466 176.37C314.286 176.551 314.041 176.652 313.786 176.652H249.408C245.912 176.653 242.559 175.265 240.087 172.793C237.614 170.321 236.223 166.967 236.221 163.47C236.219 159.973 237.606 156.617 240.075 154.142C242.545 151.667 245.897 150.275 249.392 150.272H313.786C313.912 150.272 314.038 150.296 314.155 150.344C314.272 150.393 314.378 150.464 314.468 150.553C314.558 150.642 314.629 150.749 314.677 150.866C314.726 150.983 314.751 151.108 314.751 151.235C314.751 151.361 314.726 151.487 314.677 151.604C314.629 151.721 314.558 151.827 314.468 151.916C314.378 152.006 314.272 152.077 314.155 152.125C314.038 152.173 313.912 152.198 313.786 152.197H249.408C246.425 152.201 243.565 153.39 241.456 155.502C239.348 157.614 238.164 160.477 238.164 163.462C238.164 166.447 239.348 169.31 241.456 171.422C243.565 173.534 246.425 174.723 249.408 174.727H313.786C314.041 174.727 314.286 174.828 314.466 175.009C314.647 175.189 314.748 175.434 314.748 175.689Z" fill="#3F3D56"/>
<path d="M313.208 156.626H245.848C245.797 156.627 245.748 156.607 245.711 156.571C245.675 156.535 245.655 156.486 245.654 156.435C245.654 156.385 245.673 156.335 245.709 156.299C245.745 156.263 245.793 156.242 245.844 156.241H313.208C313.259 156.242 313.308 156.262 313.343 156.298C313.379 156.334 313.399 156.383 313.399 156.434C313.399 156.484 313.379 156.533 313.343 156.569C313.308 156.605 313.259 156.626 313.208 156.626H313.208Z" fill="#CCCCCC"/>
<path d="M313.208 161.248H245.848C245.797 161.248 245.748 161.228 245.711 161.192C245.675 161.156 245.655 161.108 245.654 161.057C245.654 161.006 245.673 160.957 245.709 160.92C245.745 160.884 245.793 160.863 245.844 160.863H313.208C313.259 160.863 313.308 160.884 313.343 160.92C313.379 160.956 313.399 161.004 313.399 161.055C313.399 161.106 313.379 161.155 313.343 161.191C313.308 161.227 313.259 161.247 313.208 161.248H313.208Z" fill="#CCCCCC"/>
<path d="M313.208 165.869H245.848C245.797 165.869 245.748 165.849 245.711 165.814C245.675 165.778 245.655 165.729 245.654 165.678C245.654 165.627 245.673 165.578 245.709 165.542C245.745 165.505 245.793 165.485 245.844 165.484H313.208C313.259 165.484 313.308 165.505 313.343 165.541C313.379 165.577 313.399 165.626 313.399 165.676C313.399 165.727 313.379 165.776 313.343 165.812C313.308 165.848 313.259 165.868 313.208 165.869H313.208Z" fill="#CCCCCC"/>
<path d="M313.208 170.49H245.848C245.797 170.491 245.748 170.471 245.711 170.435C245.675 170.399 245.655 170.35 245.654 170.3C245.654 170.249 245.673 170.2 245.709 170.163C245.745 170.127 245.793 170.106 245.844 170.105H313.208C313.259 170.106 313.308 170.126 313.343 170.162C313.379 170.198 313.399 170.247 313.399 170.298C313.399 170.348 313.379 170.397 313.343 170.433C313.308 170.469 313.259 170.49 313.208 170.49H313.208Z" fill="#CCCCCC"/>
<path d="M239.589 51.5574H211.03C210.759 51.5571 210.492 51.6194 210.248 51.7393L203.04 55.3496C202.803 55.4505 202.601 55.619 202.459 55.834C202.316 56.0491 202.241 56.3013 202.241 56.5591C202.241 56.817 202.316 57.0692 202.459 57.2842C202.601 57.4993 202.803 57.6678 203.04 57.7686L210.248 61.379C210.492 61.4989 210.759 61.5611 211.03 61.5609H239.589C239.983 61.5837 240.37 61.4504 240.666 61.19C240.962 60.9295 241.143 60.5629 241.171 60.1695V52.9487C241.143 52.5553 240.962 52.1887 240.666 51.9283C240.37 51.6678 239.983 51.5346 239.589 51.5574Z" fill="#3F3D56"/>
<path d="M241.171 52.9488V60.1695C241.143 60.5629 240.962 60.9296 240.666 61.19C240.37 61.4505 239.983 61.5837 239.589 61.5609H233.9V51.5574H239.589C239.983 51.5346 240.37 51.6678 240.666 51.9283C240.962 52.1887 241.143 52.5554 241.171 52.9488Z" fill="#62896D"/>
<path d="M68.3668 193.045C72.0442 194.338 75.9926 194.662 79.8315 193.985C83.6704 193.309 87.2705 191.654 90.2849 189.182C97.9618 182.735 100.369 172.114 102.327 162.28C104.258 152.584 106.189 142.888 108.12 133.192L95.9922 141.547C87.2708 147.555 78.3529 153.756 72.3142 162.458C66.2755 171.161 63.6396 183.041 68.4915 192.458" fill="#E6E6E6"/>
<path d="M69.4035 228.262C68.176 219.316 66.9138 210.256 67.7748 201.215C68.5395 193.185 70.988 185.342 75.9728 178.912C78.6188 175.505 81.8384 172.586 85.4869 170.286C86.4384 169.685 87.314 171.194 86.3668 171.792C80.0538 175.784 75.1709 181.678 72.4221 188.626C69.3862 196.351 68.8986 204.773 69.4218 212.98C69.7382 217.943 70.4087 222.874 71.0844 227.798C71.1377 228.021 71.1044 228.255 70.9914 228.454C70.8784 228.654 70.6941 228.802 70.4756 228.871C70.2528 228.931 70.0152 228.9 69.8145 228.786C69.6138 228.672 69.4661 228.484 69.4035 228.262L69.4035 228.262Z" fill="#F2F2F2"/>
<path d="M81.2262 212.432C82.8034 214.831 84.9714 216.782 87.5212 218.099C90.071 219.416 92.9168 220.053 95.7844 219.95C103.154 219.6 109.298 214.454 114.829 209.568L131.187 195.118L120.361 194.599C112.575 194.226 104.588 193.879 97.172 196.281C89.7562 198.683 82.9169 204.464 81.5609 212.144" fill="#E6E6E6"/>
<path d="M65.9345 233.404C71.8425 222.945 78.6953 211.321 90.9401 207.606C94.3447 206.576 97.9147 206.207 101.458 206.519C102.574 206.615 102.296 208.338 101.181 208.241C95.242 207.748 89.3145 209.317 84.3963 212.684C79.6637 215.907 75.9788 220.388 72.86 225.14C70.9496 228.05 69.2384 231.084 67.5269 234.114C66.9799 235.083 65.3811 234.384 65.9345 233.404L65.9345 233.404Z" fill="#F2F2F2"/>
<path d="M56.4682 244.413C56.6672 242.105 57.4954 239.896 58.8624 238.027C60.2294 236.158 62.0829 234.699 64.2211 233.811V227.764H74.3575V234.002C76.3904 234.933 78.1399 236.388 79.4277 238.217C80.7155 240.046 81.4955 242.184 81.6882 244.413L84.0717 272.134H54.0847L56.4682 244.413Z" fill="#F2F2F2"/>
<path d="M401.19 112.052L398.175 110.782L396.106 95.658H368.56L366.317 110.72L363.62 112.07C363.491 112.134 363.387 112.241 363.326 112.371C363.265 112.502 363.249 112.65 363.283 112.79C363.316 112.931 363.395 113.056 363.509 113.146C363.622 113.235 363.762 113.284 363.906 113.284H400.942C401.09 113.284 401.233 113.233 401.347 113.139C401.462 113.045 401.54 112.915 401.57 112.77C401.599 112.625 401.577 112.474 401.508 112.343C401.439 112.213 401.327 112.11 401.19 112.052Z" fill="#E6E6E6"/>
<path d="M450.143 97.6703H314.826C314.116 97.6687 313.435 97.3854 312.934 96.8825C312.432 96.3797 312.151 95.6984 312.151 94.988V75.897H452.817V94.988C452.817 95.6984 452.536 96.3797 452.034 96.8825C451.533 97.3854 450.853 97.6687 450.143 97.6703Z" fill="#CCCCCC"/>
<path d="M452.959 84.9198H312.027V3.23336C312.028 2.3761 312.369 1.55424 312.975 0.948084C313.581 0.341924 314.402 0.000959212 315.259 0H449.727C450.584 0.000959196 451.405 0.341925 452.011 0.948084C452.617 1.55424 452.958 2.3761 452.959 3.23336L452.959 84.9198Z" fill="#3F3D56"/>
<path d="M444.542 78.991H320.444C319.784 78.9903 319.151 78.7275 318.684 78.2601C318.216 77.7928 317.954 77.1592 317.953 76.4984V8.42151C317.954 7.76061 318.216 7.12698 318.684 6.65964C319.151 6.1923 319.784 5.92942 320.444 5.92867H444.542C445.202 5.92942 445.835 6.1923 446.303 6.65964C446.77 7.12698 447.032 7.76061 447.033 8.42151V76.4984C447.032 77.1592 446.77 77.7928 446.303 78.2601C445.835 78.7275 445.202 78.9903 444.542 78.991Z" fill="white"/>
<path d="M411.856 103.012C412.657 102.272 413.611 101.716 414.65 101.384C415.689 101.052 416.788 100.953 417.87 101.092C418.952 101.231 419.99 101.606 420.911 102.19C421.833 102.774 422.615 103.553 423.203 104.472L439.988 101.486L444.29 111.25L420.526 115.133C418.917 116.019 417.039 116.283 415.249 115.876C413.458 115.469 411.879 114.419 410.81 112.925C409.741 111.431 409.258 109.597 409.45 107.77C409.643 105.943 410.499 104.25 411.856 103.012Z" fill="#FFB6B6"/>
<path d="M427.397 115.478L444.896 115.26L447.112 115.23L482.715 114.781C482.715 114.781 492.383 105.553 500.802 96.0514L499.622 87.5123C498.471 79.132 494.316 71.4556 487.93 65.9116C475.872 73.9724 468.88 89.928 468.88 89.928L446.805 95.2106L444.596 95.739L430.88 99.0183L427.397 115.478Z" fill="#62896D"/>
<path d="M516.978 167.963H484.313C484.313 169.363 448.607 170.5 448.607 170.5C447.819 171.093 447.101 171.774 446.467 172.529C444.561 174.804 443.519 177.679 443.525 180.647V182.676C443.526 186.04 444.862 189.265 447.24 191.644C449.617 194.022 452.841 195.359 456.203 195.36H516.978C520.34 195.357 523.563 194.02 525.939 191.642C528.316 189.264 529.653 186.039 529.656 182.676V180.647C529.651 177.284 528.314 174.061 525.938 171.683C523.561 169.305 520.339 167.967 516.978 167.963Z" fill="#E4E4E4"/>
<path d="M493.225 194.856H480.04V270.998H493.225V194.856Z" fill="#E4E4E4"/>
<path d="M442.514 270.534C442.514 271.96 462.493 271.086 487.139 271.086C511.785 271.086 531.765 271.96 531.765 270.534C531.765 269.109 511.785 257.806 487.139 257.806C462.493 257.806 442.514 269.109 442.514 270.534Z" fill="#E4E4E4"/>
<path d="M433.657 261.834L423.844 261.834L419.176 223.966L433.658 223.967L433.657 261.834Z" fill="#FFB6B6"/>
<path d="M436.159 271.351L404.519 271.35V270.949C404.52 267.682 405.817 264.548 408.127 262.237C410.436 259.926 413.568 258.628 416.834 258.628H416.835L436.16 258.629L436.159 271.351Z" fill="#2F2E41"/>
<path d="M404.655 261.834L394.842 261.834L390.174 223.966L404.656 223.967L404.655 261.834Z" fill="#FFB6B6"/>
<path d="M407.157 271.351L375.517 271.35V270.949C375.517 267.682 376.815 264.548 379.125 262.237C381.434 259.926 384.566 258.628 387.832 258.628H387.833L407.158 258.629L407.157 271.351Z" fill="#2F2E41"/>
<path d="M492.554 43.8254C501.977 43.8254 509.616 36.1829 509.616 26.7554C509.616 17.3279 501.977 9.68536 492.554 9.68536C483.132 9.68536 475.493 17.3279 475.493 26.7554C475.493 36.1829 483.132 43.8254 492.554 43.8254Z" fill="#FFB6B6"/>
<path d="M520.168 143.713C520.168 143.713 525.893 173.999 504.111 177.856C482.33 181.712 450.888 184.423 450.888 184.423L436.769 250.332L417.799 248.638C417.799 248.638 420.322 169.298 426.526 163.09C432.73 156.883 471.943 138.297 471.943 138.297L520.168 143.713Z" fill="#2F2E41"/>
<path d="M477.628 131.019L468.101 140.581C468.101 140.581 399.317 151.666 396.664 167.561C392.658 191.558 387.926 243.742 387.926 243.742L408.606 242.19L416.716 182.871L449.805 175.341L487.451 154.814L477.628 131.019Z" fill="#2F2E41"/>
<path d="M508.972 16.5659C507.288 13.3866 505.148 7.05035 501.749 5.87521C499.861 5.24893 497.91 4.83307 495.931 4.63517L490.153 6.85862L493.297 4.4116C492.685 4.37511 492.073 4.34527 491.462 4.3221L487.563 5.82227L489.558 4.27019C485.923 4.23287 482.171 4.61097 479.355 6.82466C476.954 8.71183 474.576 15.8608 474.191 18.8911C473.78 21.79 473.924 24.7407 474.615 27.5858L475.602 28.5251C475.948 27.7328 476.207 26.9058 476.377 26.0583C476.731 24.4746 477.411 22.9821 478.373 21.6759C479.335 20.3696 480.559 19.2783 481.966 18.4714L482.02 18.4411C483.676 17.5087 485.685 17.5517 487.584 17.6201L496.603 17.9448C498.773 18.0229 501.109 18.1603 502.801 19.522C503.876 20.5265 504.721 21.7517 505.279 23.1137C506.119 24.811 507.762 31.2131 507.762 31.2131C507.762 31.2131 508.691 30.0046 509.137 30.9041C509.851 28.5573 510.285 26.1343 510.43 23.6854C510.573 21.2257 510.07 18.7715 508.972 16.5659Z" fill="#2F2E41"/>
<path d="M568.646 34.2517C567.557 34.3234 566.498 34.633 565.542 35.1587C564.586 35.6843 563.757 36.4132 563.114 37.2941C562.47 38.175 562.027 39.1864 561.816 40.257C561.605 41.3277 561.632 42.4316 561.893 43.491L548.173 53.6166L552.29 63.4591L571.465 48.8875C573.214 48.3297 574.698 47.1491 575.636 45.5695C576.574 43.9899 576.9 42.121 576.553 40.317C576.205 38.5129 575.208 36.8991 573.751 35.7812C572.294 34.6633 570.477 34.1191 568.646 34.2517Z" fill="#FFB6B6"/>
<path d="M566.437 54.9232L532.043 93.1415C532.043 93.1415 515.595 87.8733 502.874 82.1618L497.159 64.601C495.832 60.5271 495.266 56.2436 495.489 51.9646C513.123 47.2698 533.634 64.7386 533.634 64.7386L559.38 44.5618L566.437 54.9232Z" fill="#62896D"/>
<path d="M486.182 146.535C480.045 144.415 473.7 142.222 466.856 141.399L466.562 141.363L466.643 141.078C473.728 116.19 471.96 100.269 468.488 76.3537C467.749 71.1952 468.698 65.9361 471.192 61.3613C473.687 56.7866 477.593 53.1415 482.328 50.9702L482.37 50.9512L501.917 49.7085L501.962 49.7058L516.178 53.889C518.223 54.4953 520.013 55.7556 521.274 57.477C522.534 59.1984 523.196 61.2858 523.158 63.4195C523.004 71.2845 523.33 80.0656 523.676 89.362C524.452 110.218 525.254 131.784 520.702 145.777L520.678 145.85L520.618 145.898C516.433 149.308 511.19 151.15 505.793 151.108C499.412 151.108 492.9 148.857 486.182 146.535Z" fill="#62896D"/>
<path d="M628.091 273H0.908961C0.66789 273 0.436695 272.904 0.266232 272.734C0.0957696 272.563 0 272.332 0 272.091C0 271.849 0.0957696 271.618 0.266232 271.448C0.436695 271.277 0.66789 271.181 0.908961 271.181H628.091C628.332 271.181 628.563 271.277 628.734 271.448C628.904 271.618 629 271.849 629 272.091C629 272.332 628.904 272.563 628.734 272.734C628.563 272.904 628.332 273 628.091 273Z" fill="#CCCCCC"/>
</g>
<defs>
<clipPath id="clip0_8_63">
<rect width="629" height="273" fill="white"/>
</clipPath>
</defs>
</svg>
