<svg width="354" height="267" viewBox="0 0 354 267" fill="none" xmlns="http://www.w3.org/2000/svg">
<g clip-path="url(#clip0_45_179)">
<path d="M204 12.995C207.037 19.4513 200.603 21.2801 193.232 24.7406C185.862 28.2011 180.346 31.983 177.31 25.5266C174.273 19.0703 171.809 6.25558 182.236 1.36006C193.022 -3.70411 200.964 6.53859 204 12.995Z" fill="#2F2E41"/>
<path d="M188.962 25.692C194.442 25.692 198.885 21.2534 198.885 15.7781C198.885 10.3028 194.442 5.86414 188.962 5.86414C183.482 5.86414 179.04 10.3028 179.04 15.7781C179.04 21.2534 183.482 25.692 188.962 25.692Z" fill="#FFB8B8"/>
<path d="M238.119 59.7444C237.776 59.2964 237.432 58.8564 237.085 58.4286C236.637 57.8715 236.186 57.332 235.732 56.8099C230.589 50.8804 225.119 47.1467 219.096 46.7471H219.088L218.999 46.739L206.996 58.4286L202.916 62.4004L203.005 62.6184L205.207 68.0958H243.783C242.045 65.2136 240.154 62.4258 238.119 59.7444Z" fill="#2F2E41"/>
<path d="M178.172 19.7694L181.724 18.1018L181.229 12.9822L183.604 17.219L185.302 16.4219L185.013 13.4355L186.399 15.9069L199.013 9.98442C197.828 7.46531 195.69 5.51961 193.07 4.57536C190.449 3.63112 187.561 3.76567 185.039 4.94941L183.211 5.80776C180.69 6.99151 178.743 9.12749 177.798 11.7458C176.853 14.3641 176.987 17.2503 178.172 19.7694Z" fill="#2F2E41"/>
<path d="M260.379 199.724H53.1999C51.4327 199.722 49.7384 199.019 48.4887 197.771C47.2391 196.522 46.5362 194.829 46.5342 193.063V68.6787C46.5356 67.3851 47.0506 66.1449 47.9661 65.2301C48.8815 64.3154 50.1228 63.8008 51.4175 63.7993H262.076C263.394 63.8008 264.656 64.3243 265.588 65.2548C266.519 66.1854 267.043 67.4471 267.044 68.7631V193.063C267.042 194.829 266.339 196.522 265.09 197.771C263.84 199.019 262.146 199.722 260.379 199.724Z" fill="#F2F2F2"/>
<path d="M59.6639 193.063H253.915C255.629 193.063 257.274 192.383 258.486 191.172C259.698 189.961 260.379 188.318 260.379 186.605V81.0327C260.379 79.3198 259.698 77.6771 258.486 76.4659C257.274 75.2548 255.629 74.5743 253.915 74.5743H59.6639C57.9497 74.5743 56.3056 75.2548 55.0934 76.4659C53.8812 77.6771 53.2002 79.3198 53.2002 81.0327V186.605C53.2002 188.318 53.8812 189.961 55.0934 191.172C56.3056 192.383 57.9497 193.063 59.6639 193.063Z" fill="white"/>
<path d="M266.951 68.2977H46.4404V64.9069C46.443 63.1353 47.1488 61.437 48.403 60.1846C49.6572 58.9323 51.3573 58.2281 53.1304 58.2267H260.261C262.035 58.2281 263.735 58.9323 264.989 60.1846C266.243 61.437 266.949 63.1353 266.951 64.9069V68.2977Z" fill="#62896D"/>
<path d="M58.5986 65.0012C59.5543 65.0012 60.329 64.2271 60.329 63.2722C60.329 62.3173 59.5543 61.5432 58.5986 61.5432C57.6429 61.5432 56.8682 62.3173 56.8682 63.2722C56.8682 64.2271 57.6429 65.0012 58.5986 65.0012Z" fill="white"/>
<path d="M65.167 65.0012C66.1227 65.0012 66.8974 64.2271 66.8974 63.2722C66.8974 62.3173 66.1227 61.5432 65.167 61.5432C64.2113 61.5432 63.4365 62.3173 63.4365 63.2722C63.4365 64.2271 64.2113 65.0012 65.167 65.0012Z" fill="white"/>
<path d="M71.7353 65.0012C72.691 65.0012 73.4658 64.2271 73.4658 63.2722C73.4658 62.3173 72.691 61.5432 71.7353 61.5432C70.7796 61.5432 70.0049 62.3173 70.0049 63.2722C70.0049 64.2271 70.7796 65.0012 71.7353 65.0012Z" fill="white"/>
<path d="M162.85 170.168H145.478C144.461 170.167 143.485 169.763 142.766 169.044C142.046 168.325 141.642 167.35 141.641 166.334V148.977C141.642 147.96 142.046 146.986 142.766 146.267C143.485 145.548 144.461 145.143 145.478 145.142H162.85C163.867 145.143 164.843 145.548 165.562 146.267C166.282 146.986 166.687 147.96 166.688 148.977V166.334C166.687 167.35 166.282 168.325 165.562 169.044C164.843 169.763 163.867 170.167 162.85 170.168ZM145.478 145.95C144.675 145.95 143.905 146.27 143.337 146.837C142.769 147.405 142.449 148.174 142.449 148.977V166.334C142.449 167.136 142.769 167.906 143.337 168.473C143.905 169.041 144.675 169.36 145.478 169.361H162.85C163.653 169.36 164.423 169.041 164.991 168.473C165.559 167.906 165.879 167.136 165.88 166.334V148.977C165.879 148.174 165.559 147.405 164.991 146.837C164.423 146.27 163.653 145.95 162.85 145.95H145.478Z" fill="#CCCCCC"/>
<path d="M159.417 165.324H148.913C148.592 165.324 148.284 165.196 148.057 164.969C147.829 164.742 147.702 164.435 147.701 164.114V151.197C147.702 150.876 147.829 150.568 148.057 150.341C148.284 150.114 148.592 149.986 148.913 149.986H156.524C156.8 149.986 157.068 150.08 157.283 150.253L160.176 152.576C160.317 152.689 160.432 152.832 160.51 152.996C160.589 153.159 160.629 153.338 160.629 153.519V164.114C160.628 164.435 160.501 164.742 160.273 164.969C160.046 165.196 159.738 165.324 159.417 165.324ZM148.913 150.793C148.806 150.793 148.703 150.836 148.628 150.912C148.552 150.987 148.509 151.09 148.509 151.197V164.114C148.509 164.221 148.552 164.323 148.628 164.399C148.703 164.474 148.806 164.517 148.913 164.517H159.417C159.524 164.517 159.626 164.474 159.702 164.399C159.778 164.323 159.821 164.221 159.821 164.114V153.519C159.821 153.459 159.807 153.399 159.781 153.345C159.755 153.29 159.717 153.243 159.67 153.205L156.777 150.882C156.705 150.825 156.616 150.793 156.524 150.793H148.913Z" fill="#CCCCCC"/>
<path d="M157.396 155.637H150.932C150.825 155.637 150.722 155.594 150.647 155.519C150.571 155.443 150.528 155.34 150.528 155.233C150.528 155.126 150.571 155.024 150.647 154.948C150.722 154.872 150.825 154.83 150.932 154.83H157.396C157.503 154.83 157.606 154.872 157.682 154.948C157.757 155.024 157.8 155.126 157.8 155.233C157.8 155.34 157.757 155.443 157.682 155.519C157.606 155.594 157.503 155.637 157.396 155.637Z" fill="#CCCCCC"/>
<path d="M157.396 158.059H150.932C150.825 158.059 150.722 158.016 150.647 157.941C150.571 157.865 150.528 157.762 150.528 157.655C150.528 157.548 150.571 157.446 150.647 157.37C150.722 157.294 150.825 157.252 150.932 157.252H157.396C157.503 157.252 157.606 157.294 157.682 157.37C157.757 157.446 157.8 157.548 157.8 157.655C157.8 157.762 157.757 157.865 157.682 157.941C157.606 158.016 157.503 158.059 157.396 158.059Z" fill="#CCCCCC"/>
<path d="M157.396 160.481H150.932C150.825 160.481 150.722 160.438 150.647 160.363C150.571 160.287 150.528 160.184 150.528 160.077C150.528 159.97 150.571 159.867 150.647 159.792C150.722 159.716 150.825 159.673 150.932 159.673H157.396C157.503 159.673 157.606 159.716 157.682 159.792C157.757 159.867 157.8 159.97 157.8 160.077C157.8 160.184 157.757 160.287 157.682 160.363C157.606 160.438 157.503 160.481 157.396 160.481Z" fill="#CCCCCC"/>
<path d="M204.057 170.168H186.686C185.668 170.167 184.692 169.763 183.973 169.044C183.254 168.325 182.849 167.35 182.848 166.334V148.977C182.849 147.96 183.254 146.986 183.973 146.267C184.692 145.548 185.668 145.143 186.686 145.142H204.057C205.074 145.143 206.05 145.548 206.769 146.267C207.489 146.986 207.894 147.96 207.895 148.977V166.334C207.894 167.35 207.489 168.325 206.769 169.044C206.05 169.763 205.074 170.167 204.057 170.168ZM186.686 145.95C185.882 145.95 185.112 146.27 184.544 146.837C183.976 147.405 183.657 148.174 183.656 148.977V166.334C183.657 167.136 183.976 167.906 184.544 168.473C185.112 169.041 185.882 169.36 186.686 169.361H204.057C204.86 169.36 205.63 169.041 206.198 168.473C206.766 167.906 207.086 167.136 207.087 166.334V148.977C207.086 148.174 206.766 147.405 206.198 146.837C205.63 146.27 204.86 145.95 204.057 145.95H186.686Z" fill="#CCCCCC"/>
<path d="M201.026 162.095H189.715C189.394 162.095 189.085 161.967 188.858 161.74C188.631 161.513 188.503 161.205 188.503 160.884V154.426C188.503 154.105 188.631 153.797 188.858 153.57C189.085 153.343 189.394 153.215 189.715 153.215H201.026C201.348 153.215 201.656 153.343 201.883 153.57C202.11 153.797 202.238 154.105 202.238 154.426V160.884C202.238 161.205 202.11 161.513 201.883 161.74C201.656 161.967 201.348 162.095 201.026 162.095ZM189.715 154.022C189.608 154.022 189.505 154.065 189.429 154.141C189.354 154.216 189.311 154.319 189.311 154.426V160.884C189.311 160.991 189.354 161.094 189.429 161.17C189.505 161.245 189.608 161.288 189.715 161.288H201.026C201.134 161.288 201.236 161.245 201.312 161.17C201.388 161.094 201.43 160.991 201.43 160.884V154.426C201.43 154.319 201.388 154.216 201.312 154.141C201.236 154.065 201.134 154.022 201.026 154.022H189.715Z" fill="#CCCCCC"/>
<path d="M195.371 158.72C195.144 158.72 194.922 158.657 194.729 158.537L188.693 154.768C188.602 154.712 188.538 154.621 188.514 154.517C188.49 154.413 188.509 154.303 188.565 154.212C188.622 154.122 188.713 154.057 188.817 154.033C188.921 154.009 189.031 154.027 189.122 154.084L195.157 157.853C195.222 157.892 195.296 157.914 195.371 157.914C195.447 157.914 195.521 157.892 195.585 157.853L201.621 154.084C201.711 154.027 201.821 154.009 201.925 154.033C202.03 154.057 202.12 154.122 202.177 154.212C202.234 154.303 202.252 154.413 202.228 154.517C202.204 154.621 202.14 154.712 202.049 154.768L196.014 158.537C195.821 158.657 195.598 158.72 195.371 158.72Z" fill="#CCCCCC"/>
<path d="M121.644 170.168H104.272C103.255 170.167 102.279 169.763 101.56 169.044C100.84 168.325 100.436 167.35 100.435 166.334V148.977C100.436 147.96 100.84 146.986 101.56 146.267C102.279 145.548 103.255 145.143 104.272 145.142H121.644C122.661 145.143 123.637 145.548 124.356 146.267C125.076 146.986 125.48 147.96 125.482 148.977V166.334C125.48 167.35 125.076 168.325 124.356 169.044C123.637 169.763 122.661 170.167 121.644 170.168ZM104.272 145.95C103.469 145.95 102.699 146.27 102.131 146.837C101.563 147.405 101.243 148.174 101.243 148.977V166.334C101.243 167.136 101.563 167.906 102.131 168.473C102.699 169.041 103.469 169.36 104.272 169.361H121.644C122.447 169.36 123.217 169.041 123.785 168.473C124.353 167.906 124.673 167.136 124.674 166.334V148.977C124.673 148.174 124.353 147.405 123.785 146.837C123.217 146.27 122.447 145.95 121.644 145.95H104.272Z" fill="#CCCCCC"/>
<path d="M118.614 162.095H107.303C106.981 162.095 106.673 161.967 106.446 161.74C106.219 161.513 106.091 161.205 106.091 160.884V154.426C106.091 154.105 106.219 153.797 106.446 153.57C106.673 153.343 106.981 153.215 107.303 153.215H118.614C118.936 153.215 119.244 153.343 119.471 153.57C119.698 153.797 119.826 154.105 119.826 154.426V160.884C119.826 161.205 119.698 161.513 119.471 161.74C119.244 161.967 118.936 162.095 118.614 162.095ZM107.303 154.022C107.196 154.022 107.093 154.065 107.017 154.141C106.942 154.216 106.899 154.319 106.899 154.426V160.884C106.899 160.991 106.942 161.094 107.017 161.17C107.093 161.245 107.196 161.288 107.303 161.288H118.614C118.721 161.288 118.824 161.245 118.9 161.17C118.976 161.094 119.018 160.991 119.018 160.884V154.426C119.018 154.319 118.976 154.216 118.9 154.141C118.824 154.065 118.721 154.022 118.614 154.022H107.303Z" fill="#CCCCCC"/>
<path d="M116.821 162.095H108.691C108.549 162.095 108.41 162.058 108.287 161.987C108.164 161.916 108.062 161.814 107.991 161.692C107.92 161.569 107.883 161.43 107.883 161.288C107.883 161.146 107.92 161.007 107.991 160.884L110.44 156.646C110.511 156.523 110.613 156.421 110.736 156.351C110.859 156.28 110.998 156.242 111.14 156.242C111.282 156.242 111.421 156.28 111.544 156.351C111.667 156.421 111.769 156.523 111.839 156.646L113.421 159.383L114.337 157.797C114.408 157.675 114.51 157.573 114.633 157.502C114.756 157.431 114.895 157.394 115.037 157.394C115.179 157.394 115.318 157.431 115.441 157.502C115.564 157.573 115.666 157.675 115.737 157.797L117.52 160.884C117.591 161.007 117.629 161.146 117.629 161.288C117.629 161.43 117.591 161.569 117.52 161.692C117.45 161.814 117.347 161.916 117.225 161.987C117.102 162.058 116.962 162.095 116.821 162.095H116.821ZM116.821 161.288L115.037 158.201L113.771 160.392C113.736 160.454 113.685 160.505 113.623 160.54C113.562 160.576 113.492 160.594 113.421 160.594C113.35 160.594 113.28 160.576 113.219 160.54C113.158 160.505 113.107 160.454 113.071 160.392L111.14 157.05L108.691 161.288H116.821Z" fill="#CCCCCC"/>
<path d="M117.402 156.444C117.848 156.444 118.21 156.083 118.21 155.637C118.21 155.191 117.848 154.83 117.402 154.83C116.955 154.83 116.594 155.191 116.594 155.637C116.594 156.083 116.955 156.444 117.402 156.444Z" fill="#CCCCCC"/>
<path d="M310.593 261.622L305.64 261.622L303.284 242.534L310.594 242.535L310.593 261.622Z" fill="#FFB8B8"/>
<path d="M311.856 266.419L295.887 266.419V266.217C295.887 265.401 296.047 264.594 296.36 263.84C296.672 263.087 297.13 262.402 297.707 261.825C298.284 261.249 298.97 260.791 299.724 260.479C300.478 260.167 301.286 260.006 302.103 260.006H302.103L311.857 260.007L311.856 266.419Z" fill="#2F2E41"/>
<path d="M330.792 261.622L325.839 261.622L323.483 242.534L330.793 242.535L330.792 261.622Z" fill="#FFB8B8"/>
<path d="M332.056 266.419L316.086 266.419V266.217C316.086 265.401 316.247 264.594 316.559 263.84C316.871 263.087 317.329 262.402 317.907 261.825C318.484 261.249 319.169 260.791 319.923 260.479C320.677 260.167 321.486 260.006 322.302 260.006H322.302L332.056 260.007L332.056 266.419Z" fill="#2F2E41"/>
<path d="M329.308 253.348L324.721 251.954C324.379 251.85 324.076 251.648 323.848 251.373C323.621 251.098 323.479 250.761 323.442 250.406L319.166 209.91C319.162 209.861 319.141 209.815 319.105 209.782C319.069 209.748 319.021 209.73 318.972 209.73C318.923 209.725 318.874 209.74 318.836 209.77C318.797 209.801 318.772 209.846 318.766 209.895L311.603 249.129C311.56 249.367 311.469 249.594 311.336 249.796C311.204 249.999 311.032 250.173 310.831 250.308C310.631 250.444 310.405 250.538 310.167 250.585C309.93 250.632 309.685 250.631 309.448 250.582L303.586 249.375C303.156 249.285 302.773 249.043 302.507 248.694C302.241 248.345 302.11 247.911 302.139 247.473L306.496 183.168L336.042 179.982L331.652 251.721C331.623 252.182 331.42 252.615 331.084 252.932C330.747 253.249 330.303 253.426 329.84 253.427C329.66 253.427 329.481 253.4 329.308 253.348Z" fill="#2F2E41"/>
<path d="M329.28 127.167C334.76 127.167 339.202 122.729 339.202 117.254C339.202 111.778 334.76 107.34 329.28 107.34C323.8 107.34 319.357 111.778 319.357 117.254C319.357 122.729 323.8 127.167 329.28 127.167Z" fill="#FFB8B8"/>
<path d="M306.45 183.545L312.857 143.241C313.197 141.098 313.991 139.052 315.184 137.239C316.378 135.427 317.944 133.889 319.779 132.728C321.614 131.567 323.675 130.81 325.825 130.507C327.975 130.204 330.166 130.362 332.25 130.97C335.895 132.023 339.015 134.396 341.002 137.625C342.99 140.855 343.701 144.708 342.996 148.433L336.294 184.427L306.45 183.545Z" fill="#62896D"/>
<path d="M332.019 190.757C332.515 190.43 332.932 189.998 333.243 189.492C333.554 188.987 333.75 188.419 333.817 187.829C333.884 187.24 333.821 186.643 333.633 186.08C333.444 185.517 333.134 185.003 332.725 184.573L339.349 171.757L331.889 172.552L326.743 184.601C326.065 185.335 325.681 186.293 325.663 187.292C325.645 188.291 325.994 189.261 326.644 190.02C327.295 190.779 328.201 191.273 329.192 191.409C330.182 191.545 331.188 191.313 332.019 190.757V190.757Z" fill="#FFB8B8"/>
<path d="M333.437 182.312C333.071 182.261 332.729 182.099 332.457 181.848L329.923 179.508C329.649 179.254 329.46 178.922 329.381 178.557C329.302 178.192 329.337 177.812 329.482 177.468L334.547 165.472L333.828 141.77C333.931 141.008 334.184 140.274 334.571 139.61C334.959 138.946 335.473 138.364 336.086 137.899C336.698 137.433 337.397 137.093 338.141 136.897C338.885 136.701 339.661 136.654 340.423 136.758C341.185 136.862 341.92 137.115 342.584 137.503C343.249 137.89 343.831 138.405 344.296 139.018C344.761 139.63 345.101 140.328 345.296 141.072C345.491 141.815 345.538 142.59 345.433 143.352L346.662 158.251C347.035 162.773 345.752 167.277 343.051 170.925L335.152 181.594C335 181.799 334.807 181.97 334.585 182.095C334.362 182.221 334.116 182.298 333.862 182.322C333.72 182.335 333.578 182.332 333.437 182.312Z" fill="#62896D"/>
<path d="M272.141 111.852C272.249 112.436 272.484 112.988 272.829 113.471C273.174 113.954 273.62 114.356 274.138 114.647C274.655 114.939 275.23 115.114 275.822 115.16C276.414 115.206 277.009 115.121 277.565 114.912L286.794 126.004L288.969 118.83L279.872 109.398C279.459 108.488 278.726 107.761 277.812 107.355C276.899 106.949 275.868 106.891 274.915 107.194C273.962 107.496 273.153 108.138 272.642 108.996C272.131 109.855 271.952 110.871 272.141 111.852Z" fill="#FFB8B8"/>
<path d="M279.37 116.449C279.561 116.132 279.844 115.881 280.181 115.729L283.325 114.309C283.666 114.156 284.046 114.112 284.413 114.181C284.78 114.251 285.116 114.432 285.377 114.699L294.458 124.036L316.583 132.616C317.245 133.008 317.823 133.527 318.285 134.142C318.746 134.758 319.082 135.458 319.272 136.203C319.462 136.948 319.504 137.723 319.394 138.485C319.284 139.246 319.025 139.978 318.632 140.639C318.239 141.3 317.719 141.877 317.103 142.337C316.486 142.798 315.785 143.132 315.039 143.321C314.293 143.511 313.517 143.551 312.756 143.441C311.994 143.33 311.262 143.071 310.6 142.677L296.389 137.998C292.076 136.579 288.426 133.642 286.117 129.735L279.364 118.308C279.234 118.088 279.152 117.843 279.123 117.59C279.094 117.336 279.119 117.079 279.196 116.836C279.239 116.701 279.297 116.571 279.37 116.449Z" fill="#62896D"/>
<path opacity="0.1" d="M337.328 151.63L336.924 164.547L329.481 177.468L335.696 163.068L337.328 151.63Z" fill="black"/>
<path d="M328.143 119.117C327.52 119.198 326.888 119.05 326.366 118.701C325.844 118.352 325.466 117.825 325.303 117.219C325.145 116.521 324.801 115.879 324.306 115.361C323.812 114.844 323.185 114.471 322.495 114.283C320.674 113.867 318.45 114.723 317.116 113.345C316.831 113.031 316.624 112.653 316.513 112.243C316.403 111.833 316.391 111.402 316.48 110.987C316.725 109.648 317.684 108.637 318.727 107.827C320.923 106.133 323.579 105.141 326.349 104.982C327.782 104.94 329.217 105.011 330.639 105.195C332.129 105.289 333.602 105.558 335.028 105.996C336.653 106.609 338.097 107.621 339.227 108.939C340.357 110.257 341.136 111.838 341.493 113.536C341.819 115.24 341.769 116.994 341.346 118.676C340.923 120.359 340.138 121.929 339.046 123.276C337.738 124.904 336.051 126.187 334.133 127.014C333.676 127.229 333.153 127.256 332.676 127.088C331.481 126.613 331.677 125.134 332.221 124.148C332.804 123.093 333.701 122.071 333.233 120.786C332.998 120.191 332.546 119.705 331.969 119.427C330.782 118.822 329.453 118.965 328.176 119.113L328.143 119.117Z" fill="#2F2E41"/>
<path d="M268.825 124.715H146.013C144.246 124.713 142.552 124.011 141.302 122.762C140.053 121.514 139.35 119.821 139.348 118.055V91.8181C139.35 90.0523 140.053 88.3595 141.302 87.1109C142.552 85.8623 144.246 85.16 146.013 85.158H268.825C270.592 85.16 272.286 85.8623 273.536 87.1109C274.785 88.3595 275.488 90.0523 275.49 91.8181V118.055C275.488 119.821 274.785 121.514 273.536 122.762C272.286 124.011 270.592 124.713 268.825 124.715Z" fill="white"/>
<path d="M268.824 124.917H146.013C144.192 124.915 142.447 124.191 141.159 122.905C139.872 121.619 139.148 119.874 139.146 118.055V91.8181C139.148 89.9989 139.872 88.2547 141.159 86.9683C142.447 85.6818 144.192 84.9582 146.013 84.9562H268.824C270.645 84.9582 272.391 85.6818 273.678 86.9683C274.966 88.2547 275.69 89.9989 275.692 91.8181V118.055C275.69 119.874 274.966 121.619 273.678 122.905C272.391 124.191 270.645 124.915 268.824 124.917ZM146.013 85.7635C144.407 85.7653 142.866 86.4038 141.73 87.5388C140.594 88.6739 139.955 90.2129 139.953 91.8181V118.055C139.955 119.66 140.594 121.199 141.73 122.334C142.866 123.469 144.407 124.108 146.013 124.11H268.824C270.431 124.108 271.971 123.469 273.107 122.334C274.243 121.199 274.882 119.66 274.884 118.055V91.8181C274.882 90.2129 274.243 88.6739 273.107 87.5388C271.971 86.4038 270.431 85.7653 268.824 85.7635H146.013Z" fill="#3F3D56"/>
<path d="M253.877 118.257H160.961C159.193 118.255 157.499 117.553 156.249 116.304C155 115.055 154.297 113.363 154.295 111.597V97.8729C154.297 96.1071 155 94.4143 156.249 93.1657C157.499 91.9171 159.193 91.2148 160.961 91.2128H253.877C255.644 91.2148 257.339 91.9171 258.588 93.1657C259.838 94.4143 260.541 96.1071 260.543 97.8729V111.597C260.541 113.363 259.838 115.055 258.588 116.304C257.339 117.553 255.644 118.255 253.877 118.257Z" fill="#F2F2F2"/>
<path d="M180.956 110.86C185.358 110.86 188.927 107.294 188.927 102.895C188.927 98.4962 185.358 94.9302 180.956 94.9302C176.553 94.9302 172.984 98.4962 172.984 102.895C172.984 107.294 176.553 110.86 180.956 110.86Z" fill="#FF6584"/>
<path d="M248.103 117.453L236.851 108.024L225.794 98.7579C225.502 98.5134 225.133 98.3797 224.752 98.3804C224.371 98.3812 224.003 98.5163 223.712 98.7619L212.69 108.071L209.998 110.344L205.939 106.943L193.602 96.6052C193.31 96.3606 192.941 96.2269 192.561 96.2277C192.18 96.2284 191.811 96.3635 191.521 96.6091L179.224 106.994L166.734 117.543C166.671 117.596 166.625 117.668 166.604 117.748C166.583 117.828 166.587 117.913 166.616 117.99C166.644 118.068 166.696 118.135 166.764 118.182C166.832 118.23 166.913 118.255 166.996 118.255L192.603 118.206L200.708 118.19L200.629 118.257L224.79 118.21L247.845 118.166C247.927 118.166 248.008 118.14 248.076 118.093C248.144 118.045 248.195 117.978 248.224 117.9C248.252 117.822 248.256 117.738 248.234 117.658C248.213 117.578 248.167 117.506 248.103 117.453Z" fill="#3F3D56"/>
<path d="M353.596 267H276.031C275.924 267 275.821 266.957 275.745 266.882C275.67 266.806 275.627 266.703 275.627 266.596C275.627 266.489 275.67 266.387 275.745 266.311C275.821 266.235 275.924 266.193 276.031 266.193H353.596C353.703 266.193 353.806 266.235 353.882 266.311C353.957 266.387 354 266.489 354 266.596C354 266.703 353.957 266.806 353.882 266.882C353.806 266.957 353.703 267 353.596 267Z" fill="#CCCCCC"/>
<path d="M244.03 53.2457C243.707 52.7218 243.281 52.2691 242.777 51.9152C242.274 51.5612 241.703 51.3135 241.101 51.1871C240.88 51.1407 240.656 51.1124 240.43 51.1023L209.651 23.606C209.046 22.9851 208.239 22.6001 207.376 22.5202C207.206 22.5007 207.034 22.4953 206.863 22.5041C206.153 22.5363 205.468 22.7746 204.891 23.1898C204.314 23.6051 203.871 24.1792 203.615 24.8421C203.36 25.5049 203.303 26.2278 203.453 26.9223C203.602 27.6167 203.95 28.2528 204.455 28.7525L216.24 39.0172L235.59 55.8694C235.606 56.1868 235.654 56.5018 235.732 56.8099C235.963 57.7023 236.461 58.5033 237.159 59.1067C237.856 59.71 238.721 60.0873 239.638 60.1884C240.475 60.286 241.322 60.1461 242.082 59.7847C242.685 59.5029 243.22 59.0939 243.65 58.5859C243.694 58.5334 243.735 58.485 243.775 58.4285C244.34 57.693 244.667 56.8028 244.712 55.8768C244.758 54.9508 244.52 54.0329 244.03 53.2457H244.03Z" fill="#FFB8B8"/>
<path d="M191.382 79.7451L191.096 68.0959L190.853 58.4286L190.687 51.6635L190.36 38.4764C190.295 37.7704 190.026 37.0984 189.586 36.5426C189.145 35.9868 188.552 35.5712 187.879 35.3465C187.206 35.1217 186.482 35.0977 185.796 35.2772C185.109 35.4567 184.49 35.832 184.014 36.3573C183.901 36.4773 183.8 36.607 183.711 36.7448C183.213 37.4565 182.989 38.3235 183.08 39.1868L183.8 58.4286L184.159 68.0959L184.62 80.4272C184.487 80.6084 184.367 80.7986 184.26 80.9964C183.973 81.5406 183.799 82.1376 183.75 82.751C183.701 83.3644 183.777 83.9814 183.973 84.5646C184.179 85.1761 184.511 85.7373 184.949 86.2111C185.387 86.6849 185.921 87.0606 186.515 87.3134C187.108 87.5663 187.749 87.6905 188.395 87.678C189.04 87.6655 189.676 87.5164 190.259 87.2407C190.937 86.9205 191.526 86.4384 191.973 85.8369C192.42 85.2355 192.712 84.5333 192.823 83.7924C192.934 83.0514 192.86 82.2946 192.609 81.5887C192.358 80.8828 191.937 80.2496 191.382 79.7451H191.382Z" fill="#FFB8B8"/>
<path d="M219.095 46.747L216.239 39.0172L211.617 26.4961C211.284 25.5851 210.749 24.7608 210.053 24.0844C209.358 23.408 208.518 22.8968 207.598 22.5888C207.525 22.5646 207.448 22.5404 207.375 22.5202C206.484 22.2497 205.544 22.1754 204.621 22.3022C203.697 22.429 202.812 22.754 202.027 23.2548L186.461 33.1199C185.036 34.0213 184.017 35.4411 183.619 37.0793C183.222 38.7175 183.478 40.4458 184.332 41.8992C186.279 45.2623 188.4 48.5214 190.687 51.6634C192.501 54.1296 195.878 54.392 196.464 58.4284H207.941L219.56 48.0063L219.095 46.747Z" fill="#CCCCCC"/>
<path d="M40.8688 141.217C46.0387 141.217 50.2298 137.029 50.2298 131.864C50.2298 126.698 46.0387 122.51 40.8688 122.51C35.6989 122.51 31.5078 126.698 31.5078 131.864C31.5078 137.029 35.6989 141.217 40.8688 141.217Z" fill="#A0616A"/>
<path d="M63.8507 125.425C63.943 125.499 64.0324 125.576 64.119 125.659C64.549 126.063 64.8886 126.554 65.1155 127.099C65.3423 127.644 65.4514 128.231 65.4355 128.821C65.4196 129.411 65.2791 129.991 65.0231 130.523C64.7672 131.055 64.4017 131.527 63.9505 131.909C63.8453 131.997 63.7355 132.079 63.6217 132.156L64.2552 153.527C64.2733 154.227 64.0651 154.913 63.6616 155.485C63.258 156.057 62.6807 156.484 62.0151 156.703L61.9765 156.711L44.6098 158.559C44.1376 158.609 43.6602 158.565 43.2051 158.43C42.75 158.295 42.3262 158.071 41.9582 157.771C41.5901 157.471 41.2852 157.102 41.0609 156.683C40.8367 156.265 40.6976 155.807 40.6516 155.335C40.6057 154.862 40.6538 154.386 40.7932 153.932C40.9327 153.479 41.1606 153.057 41.464 152.692C41.7673 152.327 42.14 152.026 42.5605 151.806C42.981 151.586 43.4411 151.451 43.9141 151.409L56.2939 150.32L58.4348 131.812C58.2948 131.688 58.1636 131.555 58.0423 131.412C57.3711 130.619 57.019 129.604 57.0545 128.565C57.09 127.527 57.5105 126.538 58.2345 125.792C58.9584 125.046 59.934 124.595 60.9718 124.527C62.0097 124.46 63.0358 124.78 63.8507 125.425H63.8507Z" fill="#A0616A"/>
<path d="M56.286 262.036H60.9589L63.1816 244.028H56.2852L56.286 262.036Z" fill="#A0616A"/>
<path d="M55.0947 260.511L64.2967 260.511H64.2971C65.0672 260.511 65.8297 260.663 66.5412 260.957C67.2527 261.251 67.8992 261.683 68.4437 262.227C68.9883 262.771 69.4202 263.417 69.715 264.128C70.0097 264.839 70.1613 265.601 70.1613 266.37V266.561L55.095 266.561L55.0947 260.511Z" fill="#2F2E41"/>
<path d="M9.84375 255.581L13.8585 257.969L24.9895 243.633L19.0639 240.108L9.84375 255.581Z" fill="#A0616A"/>
<path d="M9.59954 253.662L17.5062 258.365L17.5065 258.366C18.1682 258.759 18.7458 259.279 19.2063 259.896C19.6669 260.513 20.0014 261.214 20.1906 261.96C20.3799 262.706 20.4203 263.481 20.3095 264.243C20.1987 265.004 19.9389 265.737 19.5449 266.398L19.4474 266.561L6.50195 258.86L9.59954 253.662Z" fill="#2F2E41"/>
<path d="M62.0617 255.675H56.8294C56.4057 255.676 55.9968 255.52 55.6818 255.237C55.3668 254.953 55.168 254.564 55.124 254.143L49.8491 204.6C49.8358 204.476 49.7817 204.359 49.6954 204.268C49.609 204.177 49.4951 204.117 49.3711 204.097C49.2472 204.077 49.1201 204.098 49.0096 204.158C48.8991 204.217 48.8112 204.311 48.7595 204.426L39.2434 225.479L22.3959 252.928C22.1778 253.28 21.8402 253.542 21.4448 253.665C21.0495 253.789 20.6229 253.766 20.2431 253.601L13.5126 250.642C13.29 250.544 13.0909 250.4 12.9283 250.219C12.7657 250.039 12.6434 249.825 12.5695 249.594C12.4955 249.363 12.4717 249.118 12.4996 248.877C12.5274 248.635 12.6063 248.403 12.731 248.194L28.2185 222.283L32.9684 200.452C31.4745 190.985 37.8789 176.909 37.9438 176.768L37.9755 176.699L55.6165 169.81L55.705 169.918C62.6621 192.729 66.9014 217.278 63.7712 254.105C63.7326 254.532 63.5361 254.93 63.22 255.22C62.904 255.511 62.491 255.673 62.0617 255.675Z" fill="#2F2E41"/>
<path d="M37.2645 179.006L37.1823 178.833C37.1431 178.751 33.2204 170.484 30.1966 161.649C29.6155 159.941 29.3958 158.131 29.5515 156.333C29.7071 154.535 30.2348 152.789 31.101 151.206C31.9784 149.606 33.1788 148.206 34.6262 147.094C36.0735 145.982 37.7362 145.182 39.5089 144.746C42.5865 144.009 45.8266 144.401 48.639 145.851C51.4514 147.301 53.6489 149.712 54.8312 152.645C57.2297 158.638 56.4653 165.035 55.7459 170.065L55.7316 170.166L55.6398 170.21L37.2645 179.006Z" fill="#3F3D56"/>
<path d="M52.2186 126.58H37.3545V120.106C40.617 118.811 43.8095 117.71 45.7394 120.106C47.4578 120.106 49.1058 120.789 50.3209 122.003C51.536 123.217 52.2186 124.863 52.2186 126.58V126.58Z" fill="#2F2E41"/>
<path d="M36.5315 118.964C27.6454 118.964 25.1582 130.093 25.1582 136.371C25.1582 139.873 26.743 141.125 29.2334 141.549L30.1129 136.862L32.1728 141.751C32.8724 141.754 33.6073 141.74 34.3692 141.726L35.0676 140.289L36.6251 141.701C42.863 141.71 47.9046 142.618 47.9046 136.371C47.9046 130.093 45.7233 118.964 36.5315 118.964Z" fill="#2F2E41"/>
<path d="M77.969 267H0.403984C0.296841 267 0.194086 266.957 0.118324 266.882C0.0425622 266.806 0 266.703 0 266.596C0 266.489 0.0425622 266.387 0.118324 266.311C0.194086 266.235 0.296841 266.193 0.403984 266.193H77.969C78.0761 266.193 78.1789 266.235 78.2546 266.311C78.3304 266.387 78.373 266.489 78.373 266.596C78.373 266.703 78.3304 266.806 78.2546 266.882C78.1789 266.957 78.0761 267 77.969 267Z" fill="#CCCCCC"/>
<path d="M79.4279 134.201H62.0566C61.0391 134.2 60.0636 133.795 59.3441 133.076C58.6246 132.358 58.2199 131.383 58.2188 130.366V113.01C58.2199 111.993 58.6246 111.018 59.3441 110.299C60.0636 109.58 61.0391 109.176 62.0566 109.175H79.4279C80.4454 109.176 81.4209 109.58 82.1404 110.299C82.8599 111.018 83.2646 111.993 83.2658 113.01V130.366C83.2646 131.383 82.8599 132.358 82.1404 133.076C81.4209 133.795 80.4454 134.2 79.4279 134.201Z" fill="white"/>
<path d="M79.4279 134.201H62.0566C61.0391 134.2 60.0636 133.795 59.3441 133.076C58.6246 132.358 58.2199 131.383 58.2188 130.366V113.01C58.2199 111.993 58.6246 111.018 59.3441 110.299C60.0636 109.58 61.0391 109.176 62.0566 109.175H79.4279C80.4454 109.176 81.4209 109.58 82.1404 110.299C82.8599 111.018 83.2646 111.993 83.2658 113.01V130.366C83.2646 131.383 82.8599 132.358 82.1404 133.076C81.4209 133.795 80.4454 134.2 79.4279 134.201ZM62.0566 109.982C61.2533 109.983 60.4832 110.302 59.9151 110.87C59.3471 111.437 59.0276 112.207 59.0267 113.01V130.366C59.0276 131.169 59.3471 131.938 59.9151 132.506C60.4832 133.073 61.2533 133.393 62.0566 133.394H79.4279C80.2312 133.393 81.0014 133.073 81.5694 132.506C82.1374 131.938 82.4569 131.169 82.4578 130.366V113.01C82.4569 112.207 82.1374 111.437 81.5694 110.87C81.0014 110.302 80.2312 109.983 79.4279 109.982H62.0566Z" fill="#3F3D56"/>
<path d="M76.3975 127.137H65.086C64.7647 127.137 64.4566 127.009 64.2294 126.782C64.0022 126.555 63.8744 126.247 63.874 125.926V117.45C63.8744 117.129 64.0022 116.821 64.2294 116.594C64.4566 116.367 64.7647 116.239 65.086 116.239H68.2703C68.4774 116.238 68.6812 116.291 68.8621 116.391C69.0429 116.492 69.1946 116.638 69.3026 116.815L70.1906 118.257H76.3975C76.7189 118.257 77.0269 118.385 77.2541 118.612C77.4813 118.839 77.6091 119.147 77.6095 119.468V125.926C77.6091 126.247 77.4813 126.555 77.2541 126.782C77.0269 127.009 76.7189 127.137 76.3975 127.137Z" fill="#62896D"/>
<path d="M76.0298 131.419C76.0863 131.523 76.1385 131.629 76.1864 131.738C76.4255 132.278 76.5478 132.862 76.5453 133.453C76.5427 134.043 76.4153 134.626 76.1715 135.164C75.9277 135.701 75.5729 136.181 75.1304 136.573C74.6879 136.964 74.1677 137.257 73.6038 137.433C73.4726 137.474 73.3394 137.507 73.2047 137.534L65.4888 157.476C65.2337 158.128 64.7751 158.68 64.181 159.051C63.587 159.421 62.8891 159.591 62.191 159.534L62.1522 159.527L45.4286 154.496C44.9739 154.36 44.5509 154.134 44.1839 153.833C43.8169 153.532 43.5132 153.161 43.2904 152.742C43.0676 152.323 42.9301 151.864 42.8858 151.392C42.8415 150.92 42.8913 150.443 43.0324 149.99C43.1734 149.537 43.4029 149.117 43.7075 148.753C44.0122 148.389 44.386 148.089 44.8074 147.87C45.2287 147.651 45.6893 147.518 46.1624 147.478C46.6356 147.438 47.112 147.492 47.5641 147.637L59.3969 151.433L68.5578 135.206C68.4769 135.037 68.4079 134.863 68.3513 134.685C68.041 133.694 68.1106 132.622 68.5467 131.678C68.9828 130.735 69.7542 129.987 70.7112 129.58C71.6681 129.173 72.7423 129.136 73.7252 129.476C74.708 129.816 75.5294 130.508 76.0298 131.419H76.0298Z" fill="#A0616A"/>
</g>
<defs>
<clipPath id="clip0_45_179">
<rect width="354" height="267" fill="white"/>
</clipPath>
</defs>
</svg>
