<svg width="284" height="325" viewBox="0 0 284 325" fill="none" xmlns="http://www.w3.org/2000/svg">
<g clip-path="url(#clip0_72_317)">
<path d="M136.289 304.89L135.927 296.736C135.89 296.716 135.852 296.696 135.814 296.676C131.936 294.637 127.491 298.328 128.73 302.537C129.896 306.497 130.679 310.767 132.812 314.233C134.073 316.247 135.769 317.95 137.776 319.217C139.783 320.484 142.049 321.283 144.406 321.553L149.333 324.576C150.009 320.799 149.86 316.921 148.896 313.208C147.932 309.494 146.176 306.035 143.749 303.067C142.371 301.416 140.791 299.945 139.046 298.689C137.866 301.807 136.289 304.89 136.289 304.89Z" fill="#F2F2F2"/>
<path d="M92.1739 222.143C82.6875 212.34 68.9402 206.719 54.4571 206.719L53.8985 206.72C44.3589 206.724 34.9895 204.189 26.7486 199.374L25.891 198.874L26.5817 198.161C30.3209 194.285 33.4432 189.856 35.8391 185.029C34.1375 186.618 32.108 187.814 29.8942 188.53C27.6804 189.247 25.3364 189.467 23.0283 189.175C20.5914 188.884 18.2519 188.044 16.1854 186.718C14.1188 185.392 12.3789 183.614 11.0959 181.518C6.03396 173.289 0 161.613 0 152.718C0.00787975 145.2 1.57911 137.765 4.61354 130.889C7.64798 124.012 12.079 117.845 17.6243 112.779C21.1349 109.608 23.939 105.73 25.8538 101.4C27.7685 97.0702 28.7509 92.3844 28.7369 87.6484L28.7341 86.9744C28.7332 80.7391 29.4937 74.5271 30.9987 68.4769L31.1515 67.8659L31.7789 67.8879C35.8248 68.0258 39.8728 67.686 43.8393 66.8756C40.1187 66.4183 36.4789 65.4484 33.0232 63.9933L32.3482 63.7197L32.5773 63.0268C48.3671 53.2316 84.0093 58.304 104.697 10.8812C121.472 -27.5723 180.66 45.0164 180.66 86.9744C180.66 91.2557 176.431 96.9134 179.597 99.7431C213.819 130.333 190.206 149.976 182.761 169.741C180.995 174.43 184.825 179.579 184.825 184.652C184.825 185.513 184.803 186.402 184.76 187.293L184.694 188.664L183.553 187.904C181.296 186.422 179.203 184.702 177.311 182.774C179.274 187.299 180.199 192.208 180.018 197.138C179.837 202.068 178.555 206.896 176.267 211.264C172.68 218.046 169.211 222.901 165.954 225.694C155.522 234.638 142.075 239.252 128.36 238.592C114.646 237.932 101.702 232.047 92.1739 222.143Z" fill="#E6E6E6"/>
<path d="M149.47 324.174C149.703 324.173 149.928 324.089 150.104 323.935C150.28 323.782 150.395 323.571 150.428 323.339C150.469 323.049 154.503 293.902 150.88 255.164C147.535 219.389 136.79 167.86 104.605 125.54C104.528 125.438 104.432 125.353 104.322 125.289C104.212 125.224 104.09 125.182 103.964 125.165C103.838 125.148 103.709 125.156 103.586 125.189C103.463 125.221 103.347 125.278 103.246 125.355C103.145 125.432 103.06 125.529 102.996 125.639C102.932 125.75 102.89 125.872 102.873 125.998C102.856 126.125 102.864 126.253 102.897 126.377C102.929 126.5 102.986 126.616 103.063 126.717C134.97 168.672 145.628 219.823 148.95 255.345C152.552 293.858 148.55 322.778 148.509 323.065C148.489 323.203 148.5 323.344 148.539 323.477C148.578 323.611 148.646 323.734 148.737 323.839C148.828 323.944 148.941 324.028 149.067 324.086C149.193 324.144 149.331 324.174 149.47 324.174Z" fill="#3F3D56"/>
<path d="M123.204 185.234C123.409 185.234 123.609 185.17 123.774 185.049C123.94 184.929 124.063 184.759 124.127 184.564C124.19 184.369 124.19 184.158 124.127 183.963C124.064 183.768 123.941 183.598 123.775 183.477C123.658 183.392 111.884 174.892 94.2816 168.435C78.0096 162.466 53.2656 157.055 27.792 165.178C27.6705 165.217 27.5579 165.279 27.4604 165.361C27.3629 165.443 27.2825 165.544 27.2239 165.657C27.1653 165.771 27.1296 165.894 27.1187 166.022C27.1079 166.149 27.1222 166.277 27.1609 166.398C27.1995 166.52 27.2617 166.633 27.3439 166.73C27.4261 166.828 27.5267 166.908 27.6399 166.967C27.7531 167.025 27.8768 167.061 28.0037 167.072C28.1307 167.082 28.2585 167.068 28.3799 167.029C53.3315 159.073 77.627 164.394 93.615 170.259C110.966 176.624 122.52 184.965 122.635 185.049C122.8 185.169 123 185.234 123.204 185.234Z" fill="#3F3D56"/>
<path d="M167.568 74.5293C167.583 74.3247 167.533 74.1206 167.425 73.9463C167.317 73.7721 167.156 73.6365 166.967 73.5591C166.777 73.4818 166.568 73.4666 166.369 73.5157C166.17 73.5648 165.992 73.6757 165.86 73.8325C165.767 73.9432 156.458 85.0971 148.762 102.222C141.648 118.053 134.479 142.39 140.731 168.431C140.791 168.682 140.948 168.898 141.167 169.032C141.387 169.167 141.65 169.209 141.9 169.148C142.15 169.088 142.366 168.931 142.5 168.711C142.634 168.492 142.676 168.228 142.616 167.977C136.493 142.47 143.54 118.574 150.529 103.02C158.115 86.139 167.251 75.1932 167.342 75.0846C167.474 74.9281 167.553 74.7337 167.568 74.5293Z" fill="#3F3D56"/>
<path d="M166.257 124.606C167.074 131.217 171.646 136.668 178.295 136.668C181.488 136.668 184.55 135.397 186.808 133.135C189.066 130.873 190.334 127.805 190.334 124.606C190.334 117.944 184.916 113.16 178.295 112.544C171.271 111.891 165.207 116.118 166.257 124.606Z" fill="#2F2E41"/>
<path d="M183.871 318.861L188.456 318.86L190.636 301.144L183.87 301.144L183.871 318.861Z" fill="#FFB6B6"/>
<path d="M183.71 323.652L197.808 323.652V323.473C197.808 322.015 197.23 320.617 196.201 319.586C195.172 318.555 193.776 317.976 192.321 317.976H192.32L189.745 316.018L184.941 317.976L183.71 317.976L183.71 323.652Z" fill="#2F2E41"/>
<path d="M165.812 318.861L170.397 318.86L172.578 301.144L165.812 301.144L165.812 318.861Z" fill="#FFB6B6"/>
<path d="M165.652 323.652L179.749 323.652V323.473C179.749 322.015 179.171 320.617 178.142 319.586C177.113 318.555 175.717 317.976 174.262 317.976H174.262L171.687 316.018L166.882 317.976L165.651 317.976L165.652 323.652Z" fill="#2F2E41"/>
<path d="M199.648 207.897L202.889 219.031L199.071 266.185C199.071 266.185 201.037 269.133 199.648 269.133C198.259 269.133 196.478 269.787 197.6 271.548C198.722 273.309 194.886 279.63 194.886 279.63L189.461 313.205L182.549 313.103C182.549 313.103 179.034 311.141 181.006 309.158C182.979 307.174 184.368 307.174 182.516 305.319C180.664 303.463 180.664 304.022 180.664 302.583C180.664 301.143 178.808 283.555 183.209 276.808L181.883 249.3L178.76 276.282L172.329 312.277L165.67 312.222C165.67 312.222 162.594 309.252 162.6 307.053C162.606 304.855 164.5 304.672 163.09 303.372C161.679 302.071 161.679 282.094 165.847 270.989C165.847 270.989 168.204 264.785 165.841 262.659C163.479 260.533 165.838 258.1 165.838 258.1C165.838 258.1 169.581 256.745 165.835 252.84C162.09 248.935 165.815 221.317 165.815 221.317C165.815 221.317 161.72 210.169 165.867 205.786C170.014 201.402 199.648 207.897 199.648 207.897Z" fill="#2F2E41"/>
<path d="M141.92 227.08L147.702 213.078L152.259 215.614L149.507 229.857C149.783 230.76 149.802 231.721 149.562 232.634C149.322 233.546 148.832 234.374 148.149 235.023C147.465 235.672 146.615 236.117 145.692 236.309C144.77 236.5 143.813 236.43 142.928 236.106C142.043 235.782 141.266 235.217 140.684 234.475C140.103 233.733 139.739 232.843 139.634 231.906C139.529 230.968 139.688 230.019 140.091 229.167C140.495 228.314 141.128 227.591 141.92 227.08Z" fill="#FFB6B6"/>
<path d="M238.958 116.357L230.159 128.682L226.295 125.177L232.196 111.929C232.132 110.988 232.331 110.047 232.771 109.212C233.211 108.378 233.875 107.683 234.687 107.206C235.5 106.729 236.429 106.488 237.371 106.511C238.312 106.534 239.229 106.82 240.017 107.336C240.806 107.853 241.435 108.579 241.834 109.434C242.233 110.289 242.386 111.238 242.276 112.175C242.166 113.112 241.797 114 241.211 114.739C240.625 115.478 239.845 116.038 238.958 116.357Z" fill="#FFB6B6"/>
<path d="M200.521 209.038C206.228 217.908 177.54 229.163 166.533 224.644C164.605 223.853 157.975 221.24 162.507 217.616C167.039 213.993 161.981 213.483 161.862 211.124C161.782 209.547 163 206.088 161.729 206.236C160.458 206.385 158.969 204.204 161.738 203.265C164.508 202.327 161.768 201.471 161.792 200.58C162.057 190.859 169.502 175.396 169.502 175.396L156.087 209.752C156.087 209.752 156.186 215.696 154.476 213.879C152.765 212.063 152.89 217.942 152.89 217.942C152.89 217.942 150.346 219.72 151.809 220.71C153.271 221.7 150.234 224.743 150.234 224.743L143.146 224.236C143.146 224.236 143.257 218.961 144.468 217.795C145.678 216.628 145.083 214.792 145.083 214.792C145.083 214.792 148.234 211.998 146.122 209.729C143.405 206.811 153.31 157.525 156.728 158.013C157.211 155.657 158.336 153.48 159.976 151.724C161.617 149.967 163.711 148.7 166.026 148.061L173.681 145.95L175.04 140.546H185.819L187.696 144.097L195.891 147.802C197.434 145.62 198.588 143.32 204.908 142.575C204.908 142.575 221.94 127.049 221.108 125.837C220.277 124.625 222.917 121.786 222.917 121.786C222.917 121.786 225.172 121.047 223.899 120.652C222.627 120.258 225.032 119.345 225.032 119.345C225.032 119.345 227.259 118.759 226.209 117.986C225.158 117.214 229.714 116.707 229.714 116.707L235.626 121.54L234.431 123.569C234.431 123.569 235.16 126.333 234.209 125.324C233.258 124.315 233.079 127.244 233.079 127.244C233.079 127.244 232.594 130.45 229.714 131.416C226.835 132.382 224.652 141.561 224.652 141.561C217.862 150.406 209.848 157.306 200.352 161.849C204.053 166.105 200.521 209.038 200.521 209.038Z" fill="#62896D"/>
<path d="M179.626 137.384C185.522 137.384 190.301 132.595 190.301 126.688C190.301 120.781 185.522 115.992 179.626 115.992C173.73 115.992 168.95 120.781 168.95 126.688C168.95 132.595 173.73 137.384 179.626 137.384Z" fill="#FFB6B6"/>
<path d="M168.571 127.853C168.909 130.178 170.886 133.42 170.423 133.42C169.96 133.42 166.668 123.839 169.96 123.214C172.348 122.761 172.882 123.159 175.114 122.189L174.799 122.486C176.276 123.562 178.332 122.899 180.017 122.198C181.707 121.502 183.759 120.839 185.24 121.911C186.171 122.583 186.565 123.752 187.143 124.745C187.722 125.743 188.792 126.684 189.894 126.378C190.778 126.132 191.287 125.14 191.283 124.221C191.278 123.302 190.084 122.429 190.486 121.605C191.678 119.162 190.606 117.498 188.009 116.348C187.065 116.205 186.12 116.058 185.176 115.908C185.67 115.221 186.271 114.616 186.954 114.117C186.665 113.376 186.166 112.735 185.518 112.275C184.763 111.825 183.828 111.858 182.953 111.904C180.999 112.006 179.047 112.108 177.096 112.21C175.651 112.284 174.155 112.373 172.864 113.036C171.252 113.866 170.197 115.486 169.428 117.132C167.705 120.834 167.979 123.813 168.571 127.853Z" fill="#2F2E41"/>
<path d="M124.163 324.857L229.154 325C229.301 325 229.441 324.942 229.544 324.838C229.648 324.735 229.706 324.594 229.706 324.448C229.706 324.301 229.648 324.161 229.544 324.057C229.441 323.953 229.301 323.895 229.154 323.895L124.163 323.753C124.016 323.753 123.876 323.811 123.773 323.914C123.669 324.018 123.611 324.159 123.611 324.305C123.611 324.452 123.669 324.592 123.773 324.696C123.876 324.799 124.016 324.857 124.163 324.857Z" fill="#CACACA"/>
<path d="M86.1895 276.707C86.3831 275.374 84.9898 274.068 83.0775 273.789C81.1652 273.51 79.4581 274.365 79.2645 275.698C79.071 277.031 80.4643 278.337 82.3766 278.616C84.2889 278.895 85.996 278.04 86.1895 276.707Z" fill="#E6E6E6"/>
<path d="M108.957 274.481C109.151 273.149 107.757 271.842 105.845 271.563C103.933 271.285 102.226 272.139 102.032 273.472C101.839 274.805 103.232 276.111 105.144 276.39C107.056 276.669 108.764 275.814 108.957 274.481Z" fill="#3F3D56"/>
<path d="M79.9551 258.24C80.1487 256.907 78.7554 255.6 76.8431 255.322C74.9308 255.043 73.2237 255.897 73.0301 257.23C72.8366 258.563 74.2299 259.87 76.1422 260.148C78.0545 260.427 79.7616 259.573 79.9551 258.24Z" fill="#FF6584"/>
<path d="M70.062 250.675C70.0713 249.452 69.39 248.455 68.5405 248.448C67.6909 248.442 66.9947 249.428 66.9855 250.652C66.9762 251.876 67.6575 252.873 68.507 252.879C69.3566 252.886 70.0528 251.899 70.062 250.675Z" fill="#E6E6E6"/>
<path d="M66.7065 236.585C66.7158 235.362 66.0346 234.365 65.185 234.358C64.3354 234.352 63.6392 235.339 63.63 236.562C63.6208 237.786 64.302 238.783 65.1516 238.789C66.0011 238.796 66.6973 237.809 66.7065 236.585Z" fill="#3F3D56"/>
<path d="M92.7964 261.383C92.8056 260.159 92.1244 259.162 91.2749 259.155C90.4253 259.149 89.7291 260.136 89.7198 261.359C89.7106 262.583 90.3918 263.58 91.2414 263.586C92.091 263.593 92.7872 262.606 92.7964 261.383Z" fill="#E6E6E6"/>
<path d="M81.7935 266.886C81.8027 265.663 81.1215 264.666 80.2719 264.659C79.4223 264.653 78.7262 265.639 78.7169 266.863C78.7077 268.087 79.3889 269.084 80.2385 269.09C81.088 269.097 81.7842 268.11 81.7935 266.886Z" fill="#FF6584"/>
<path d="M97.1099 277.059C97.1191 275.835 96.4379 274.838 95.5883 274.832C94.7388 274.825 94.0426 275.812 94.0333 277.036C94.0241 278.259 94.7053 279.256 95.5549 279.263C96.4045 279.269 97.1006 278.282 97.1099 277.059Z" fill="#3F3D56"/>
<path d="M261.214 205.265C261.407 203.932 260.014 202.625 258.102 202.347C256.19 202.068 254.482 202.922 254.289 204.255C254.095 205.588 255.489 206.894 257.401 207.173C259.313 207.452 261.02 206.597 261.214 205.265Z" fill="#E6E6E6"/>
<path d="M283.982 203.039C284.176 201.706 282.783 200.399 280.87 200.121C278.958 199.842 277.251 200.696 277.057 202.029C276.864 203.362 278.257 204.668 280.17 204.947C282.082 205.226 283.789 204.372 283.982 203.039Z" fill="#3F3D56"/>
<path d="M254.98 186.797C255.173 185.464 253.78 184.158 251.867 183.879C249.955 183.6 248.248 184.455 248.055 185.788C247.861 187.12 249.254 188.427 251.167 188.706C253.079 188.984 254.786 188.13 254.98 186.797Z" fill="#FF6584"/>
<path d="M245.086 179.232C245.096 178.009 244.414 177.012 243.565 177.005C242.715 176.999 242.019 177.986 242.01 179.209C242.001 180.433 242.682 181.43 243.531 181.436C244.381 181.443 245.077 180.456 245.086 179.232Z" fill="#E6E6E6"/>
<path d="M241.732 165.143C241.741 163.919 241.06 162.922 240.21 162.915C239.361 162.909 238.665 163.896 238.655 165.119C238.646 166.343 239.327 167.34 240.177 167.346C241.026 167.353 241.723 166.366 241.732 165.143Z" fill="#3F3D56"/>
<path d="M267.821 189.94C267.83 188.716 267.149 187.719 266.299 187.713C265.45 187.706 264.753 188.693 264.744 189.916C264.735 191.14 265.416 192.137 266.266 192.144C267.115 192.15 267.812 191.163 267.821 189.94Z" fill="#E6E6E6"/>
<path d="M256.819 195.444C256.828 194.22 256.147 193.223 255.297 193.216C254.448 193.21 253.752 194.197 253.742 195.42C253.733 196.644 254.414 197.641 255.264 197.647C256.113 197.654 256.81 196.667 256.819 195.444Z" fill="#FF6584"/>
<path d="M272.134 205.616C272.144 204.393 271.462 203.395 270.613 203.389C269.763 203.383 269.067 204.369 269.058 205.593C269.049 206.816 269.73 207.814 270.579 207.82C271.429 207.826 272.125 206.84 272.134 205.616Z" fill="#3F3D56"/>
<path d="M176.48 73.0492C176.673 71.7164 175.28 70.4099 173.368 70.1312C171.455 69.8524 169.748 70.7069 169.555 72.0397C169.361 73.3725 170.754 74.679 172.667 74.9577C174.579 75.2365 176.286 74.382 176.48 73.0492Z" fill="white"/>
<path d="M199.248 70.8233C199.442 69.4904 198.048 68.184 196.136 67.9052C194.224 67.6265 192.517 68.4809 192.323 69.8138C192.13 71.1466 193.523 72.453 195.435 72.7318C197.347 73.0106 199.055 72.1561 199.248 70.8233Z" fill="#3F3D56"/>
<path d="M170.245 54.5816C170.439 53.2488 169.045 51.9423 167.133 51.6636C165.221 51.3848 163.514 52.2393 163.32 53.5721C163.127 54.9049 164.52 56.2114 166.432 56.4902C168.344 56.7689 170.052 55.9144 170.245 54.5816Z" fill="#FF6584"/>
<path d="M160.352 47.017C160.361 45.7934 159.68 44.7963 158.831 44.7899C157.981 44.7834 157.285 45.7701 157.276 46.9937C157.266 48.2173 157.948 49.2144 158.797 49.2209C159.647 49.2273 160.343 48.2406 160.352 47.017Z" fill="#E6E6E6"/>
<path d="M156.998 32.9273C157.007 31.7037 156.326 30.7065 155.476 30.7001C154.626 30.6937 153.93 31.6804 153.921 32.9039C153.912 34.1275 154.593 35.1247 155.443 35.1311C156.292 35.1375 156.988 34.1508 156.998 32.9273Z" fill="#3F3D56"/>
<path d="M183.086 57.7243C183.096 56.5007 182.414 55.5036 181.565 55.4972C180.715 55.4907 180.019 56.4774 180.01 57.701C180.001 58.9246 180.682 59.9217 181.531 59.9282C182.381 59.9346 183.077 58.9479 183.086 57.7243Z" fill="#E6E6E6"/>
<path d="M172.085 63.2282C172.094 62.0046 171.413 61.0075 170.563 61.0011C169.713 60.9946 169.017 61.9813 169.008 63.2049C168.999 64.4285 169.68 65.4256 170.529 65.4321C171.379 65.4385 172.075 64.4518 172.085 63.2282Z" fill="#FF6584"/>
<path d="M187.4 73.4008C187.409 72.1772 186.728 71.1801 185.878 71.1736C185.029 71.1672 184.333 72.1539 184.323 73.3775C184.314 74.601 184.995 75.5982 185.845 75.6046C186.694 75.611 187.391 74.6243 187.4 73.4008Z" fill="#3F3D56"/>
</g>
<defs>
<clipPath id="clip0_72_317">
<rect width="284" height="325" fill="white"/>
</clipPath>
</defs>
</svg>
